<?xml version="1.0" encoding="UTF-8"?>
<svg xmlns="http://www.w3.org/2000/svg" xmlns:xlink="http://www.w3.org/1999/xlink" width="172pt" height="126pt" viewBox="0 0 172 126" version="1.1">
<g id="surface1">
<path style="fill:none;stroke-width:0.3985;stroke-linecap:butt;stroke-linejoin:miter;stroke:rgb(50%,50%,50%);stroke-opacity:1;stroke-miterlimit:10;" d="M -0.0001875 0.00084375 L 28.347469 0.00084375 M -0.0001875 0.00084375 L -0.0001875 28.3485 M -0.0001875 0.00084375 L -5.668156 -5.671031 " transform="matrix(1,0,0,-1,86.133,63.161)"/>
<path style="fill:none;stroke-width:0.3985;stroke-linecap:butt;stroke-linejoin:miter;stroke:rgb(0%,0%,0%);stroke-opacity:1;stroke-miterlimit:10;" d="M -0.0001875 28.3485 L -0.0001875 56.69225 M 28.347469 0.00084375 L 85.038875 0.00084375 M -5.668156 -5.671031 L -28.347844 -28.346812 " transform="matrix(1,0,0,-1,86.133,63.161)"/>
<path style="fill-rule:nonzero;fill:rgb(50%,50%,50%);fill-opacity:0.3;stroke-width:0.3985;stroke-linecap:butt;stroke-linejoin:miter;stroke:rgb(0%,0%,0%);stroke-opacity:1;stroke-miterlimit:10;" d="M 85.038875 56.69225 C 85.038875 59.825063 72.347469 62.364125 56.695125 62.364125 C 41.038875 62.364125 28.347469 59.825063 28.347469 56.69225 C 28.347469 53.563344 41.038875 51.024281 56.695125 51.024281 C 72.347469 51.024281 85.038875 53.563344 85.038875 56.69225 Z M 85.038875 56.69225 " transform="matrix(1,0,0,-1,86.133,63.161)"/>
<path style="fill:none;stroke-width:0.79701;stroke-linecap:butt;stroke-linejoin:miter;stroke:rgb(0%,0%,100%);stroke-opacity:1;stroke-miterlimit:10;" d="M -85.03925 -56.694469 L 28.347469 56.69225 M -28.347844 -56.694469 L 85.038875 56.69225 " transform="matrix(1,0,0,-1,86.133,63.161)"/>
<path style="fill:none;stroke-width:0.79701;stroke-linecap:butt;stroke-linejoin:miter;stroke:rgb(0%,0%,100%);stroke-opacity:1;stroke-miterlimit:10;" d="M -28.347844 0.00084375 C -28.347844 -3.131969 -15.656437 -5.671031 -0.0001875 -5.671031 C 15.656063 -5.671031 28.347469 -3.131969 28.347469 0.00084375 " transform="matrix(1,0,0,-1,86.133,63.161)"/>
<path style="fill:none;stroke-width:0.79701;stroke-linecap:butt;stroke-linejoin:miter;stroke:rgb(0%,0%,0%);stroke-opacity:1;stroke-dasharray:0.79701,1.99255;stroke-miterlimit:10;" d="M -28.347844 0.00084375 C -28.347844 3.12975 -15.656437 5.668813 -0.0001875 5.668813 C 15.656063 5.668813 28.347469 3.12975 28.347469 0.00084375 " transform="matrix(1,0,0,-1,86.133,63.161)"/>
<path style="fill:none;stroke-width:0.79701;stroke-linecap:butt;stroke-linejoin:miter;stroke:rgb(0%,0%,100%);stroke-opacity:1;stroke-miterlimit:10;" d="M -85.03925 -56.694469 C -85.03925 -59.823375 -72.347844 -62.362437 -56.6955 -62.362437 C -41.03925 -62.362437 -28.347844 -59.823375 -28.347844 -56.694469 " transform="matrix(1,0,0,-1,86.133,63.161)"/>
<path style="fill:none;stroke-width:0.79701;stroke-linecap:butt;stroke-linejoin:miter;stroke:rgb(0%,0%,0%);stroke-opacity:1;stroke-dasharray:0.79701,1.99255;stroke-miterlimit:10;" d="M -85.03925 -56.694469 C -85.03925 -53.561656 -72.347844 -51.022594 -56.6955 -51.022594 C -41.03925 -51.022594 -28.347844 -53.561656 -28.347844 -56.694469 " transform="matrix(1,0,0,-1,86.133,63.161)"/>
</g>
</svg>
