<?xml version="1.0" encoding="UTF-8"?>
<svg xmlns="http://www.w3.org/2000/svg" xmlns:xlink="http://www.w3.org/1999/xlink" width="78pt" height="52pt" viewBox="0 0 78 52" version="1.1">
<g id="surface1">
<path style=" stroke:none;fill-rule:nonzero;fill:rgb(84.999084%,84.999084%,84.999084%);fill-opacity:1;" d="M 2.738281 44.25 L 16.996094 29.992188 C 20.886719 26.101562 28.503906 22.945312 34.003906 22.945312 L 42.425781 22.945312 C 47.929688 22.945312 52.386719 18.484375 52.386719 12.984375 L 52.386719 4.5625 C 52.386719 -0.941406 54.382812 -1.410156 56.84375 3.507812 L 76.28125 42.382812 C 78.742188 47.304688 76.273438 51.292969 70.773438 51.292969 L 5.65625 51.292969 C 0.15625 51.292969 -1.152344 48.140625 2.738281 44.25 Z M 2.738281 44.25 "/>
<path style=" stroke:none;fill-rule:nonzero;fill:rgb(100%,100%,100%);fill-opacity:1;" d="M 29.023438 31.449219 L 47.40625 31.449219 C 50.160156 31.449219 52.386719 33.679688 52.386719 36.433594 L 52.386719 37.808594 C 52.386719 40.558594 50.160156 42.789062 47.40625 42.789062 L 29.023438 42.789062 C 26.273438 42.789062 24.042969 40.558594 24.042969 37.808594 L 24.042969 36.433594 C 24.042969 33.679688 26.273438 31.449219 29.023438 31.449219 Z M 29.023438 31.449219 "/>
</g>
</svg>
